# xmcd
#
# Track frame offsets:
# 183
# 15383
# 30583
# 48683
# 67033
# 80508
# 90958
# 107608
# 139083
# 155233
# 170183
# 188945
# 212833
# 236333
# 254283
# 270020
# 289208
# 299258
# 313983
#
# Disc length: 4375 seconds
#
# Revision: 1
# Processed by: cddbd v1.5.1PL0 Copyright (c) Steve Scherf et al.
# Submitted via: CedeCatalogueitor 2.6.0.6 http://personales.ya.com/cdcatalogueitor
#
DISCID=14111513
DTITLE=Harmonica Coixa Blues Band - Harmonica Coixa Blues Band - Walking
DYEAR=1900
DGENRE=
TTITLE0=Bog Boss Man
TTITLE1=300 Puonds Of Heavently Joy
TTITLE2=I Feel So Bad
TTITLE3=Rambling On My Mind
TTITLE4=Boogie En C
TTITLE5=Peach Tree
TTITLE6=Bottle Up An Go
TTITLE7=Doonam-ho Nina
TTITLE8=Tell Me What You Want Me To Do
TTITLE9=Walking
TTITLE10=T-bone Shuffle
TTITLE11=Playing With Fire
TTITLE12=Alleluyah
TTITLE13=Hush Hush
TTITLE14=One More Mile
TTITLE15=M´en Vaig Volant
TTITLE16=Boogie Brou
TTITLE17=Meesing With The Kid
TTITLE18=How Long
EXTD=
EXTT0=
EXTT1=
EXTT2=
EXTT3=
EXTT4=
EXTT5=
EXTT6=
EXTT7=
EXTT8=
EXTT9=
EXTT10=
EXTT11=
EXTT12=
EXTT13=
EXTT14=
EXTT15=
EXTT16=
EXTT17=
EXTT18=
PLAYORDER=
